<svg xmlns="http://www.w3.org/2000/svg" xmlns:xlink="http://www.w3.org/1999/xlink" viewBox="0 0 540 540" width="540" height="540" preserveAspectRatio="xMidYMid meet" style="width: 100%; height: 100%; transform: translate3d(0px, 0px, 0px); content-visibility: visible;"><defs><clipPath id="__lottie_element_6299"><rect width="540" height="540" x="0" y="0"/></clipPath></defs><g clip-path="url(#__lottie_element_6299)"><g transform="matrix(1,0,0,1,309.2240905761719,341.25)" opacity="1" style="display: block;"><g opacity="1" transform="matrix(1,0,0,1,-83.25,-26.25)"><path stroke-linecap="butt" stroke-linejoin="miter" fill-opacity="0" stroke-miterlimit="4" stroke="rgb(66,232,203)" stroke-opacity="1" stroke-width="20" d=" M25,-5 C25,-5 25,5 25,5 C25,16.038000106811523 16.038000106811523,25 5,25 C5,25 -5,25 -5,25 C-16.038000106811523,25 -25,16.038000106811523 -25,5 C-25,5 -25,-5 -25,-5 C-25,-16.038000106811523 -16.038000106811523,-25 -5,-25 C-5,-25 5,-25 5,-25 C16.038000106811523,-25 25,-16.038000106811523 25,-5z"/></g></g><g transform="matrix(1,0,0,1,398.25,340.2759094238281)" opacity="1" style="display: block;"><g opacity="1" transform="matrix(1,0,0,1,-83.25,-26.25)"><path stroke-linecap="butt" stroke-linejoin="miter" fill-opacity="0" stroke-miterlimit="4" stroke="rgb(0,0,0)" stroke-opacity="1" stroke-width="20" d=" M25,-5 C25,-5 25,5 25,5 C25,16.038000106811523 16.038000106811523,25 5,25 C5,25 -5,25 -5,25 C-16.038000106811523,25 -25,16.038000106811523 -25,5 C-25,5 -25,-5 -25,-5 C-25,-16.038000106811523 -16.038000106811523,-25 -5,-25 C-5,-25 5,-25 5,-25 C16.038000106811523,-25 25,-16.038000106811523 25,-5z"/></g></g><g transform="matrix(1,0,0,1,397.2759094238281,251.25)" opacity="1" style="display: block;"><g opacity="1" transform="matrix(1,0,0,1,-83.25,-26.25)"><path stroke-linecap="butt" stroke-linejoin="miter" fill-opacity="0" stroke-miterlimit="4" stroke="rgb(66,232,203)" stroke-opacity="1" stroke-width="20" d=" M25,-5 C25,-5 25,5 25,5 C25,16.038000106811523 16.038000106811523,25 5,25 C5,25 -5,25 -5,25 C-16.038000106811523,25 -25,16.038000106811523 -25,5 C-25,5 -25,-5 -25,-5 C-25,-16.038000106811523 -16.038000106811523,-25 -5,-25 C-5,-25 5,-25 5,-25 C16.038000106811523,-25 25,-16.038000106811523 25,-5z"/></g></g><g transform="matrix(1,0,0,1,308.25,252.22409057617188)" opacity="1" style="display: block;"><g opacity="1" transform="matrix(1,0,0,1,-83.25,-26.25)"><path stroke-linecap="butt" stroke-linejoin="miter" fill-opacity="0" stroke-miterlimit="4" stroke="rgb(0,0,0)" stroke-opacity="1" stroke-width="20" d=" M25,-5 C25,-5 25,5 25,5 C25,16.038000106811523 16.038000106811523,25 5,25 C5,25 -5,25 -5,25 C-16.038000106811523,25 -25,16.038000106811523 -25,5 C-25,5 -25,-5 -25,-5 C-25,-16.038000106811523 -16.038000106811523,-25 -5,-25 C-5,-25 5,-25 5,-25 C16.038000106811523,-25 25,-16.038000106811523 25,-5z"/></g></g></g></svg>