<svg xmlns="http://www.w3.org/2000/svg" version="1.1" xmlns:xlink="http://www.w3.org/1999/xlink" xmlns:svgjs="http://svgjs.com/svgjs" width="1440" height="560" preserveAspectRatio="none" viewBox="0 0 1440 560"><g mask="url(&quot;#SvgjsMask1000&quot;)" fill="none"><rect width="1440" height="560" x="0" y="0" fill="#0e2a47"></rect><path d="M-62.94 359.63L-62.94 359.63" stroke="#132e65" stroke-width="1.5"></path><path d="M-62.94 359.63L-80.1 497.67" stroke="#132e65" stroke-width="1.5"></path><path d="M-80.1 497.67L-80.1 497.67" stroke="#132e65" stroke-width="1.5"></path><path d="M-80.1 497.67L46.38 530.17" stroke="#132e65" stroke-width="1.5"></path><path d="M-80.1 497.67L-84.21 654.23" stroke="#132e65" stroke-width="1.5"></path><path d="M-80.1 497.67L80.43 405.84" stroke="#132e65" stroke-width="1.5"></path><path d="M-80.1 497.67L111.64 685.18" stroke="#132e65" stroke-width="1.5"></path><path d="M-84.21 654.23L-84.21 654.23" stroke="#132e65" stroke-width="1.5"></path><path d="M-84.21 654.23L46.38 530.17" stroke="#132e65" stroke-width="1.5"></path><path d="M-84.21 654.23L111.64 685.18" stroke="#132e65" stroke-width="1.5"></path><path d="M80.43 405.84L80.43 405.84" stroke="#132e65" stroke-width="1.5"></path><path d="M80.43 405.84L46.38 530.17" stroke="#132e65" stroke-width="1.5"></path><path d="M80.43 405.84L224.47 390.68" stroke="#132e65" stroke-width="1.5"></path><path d="M80.43 405.84L-62.94 359.63" stroke="#132e65" stroke-width="1.5"></path><path d="M80.43 405.84L214.39 523.06" stroke="#132e65" stroke-width="1.5"></path><path d="M46.38 530.17L46.38 530.17" stroke="#132e65" stroke-width="1.5"></path><path d="M46.38 530.17L214.39 523.06" stroke="#132e65" stroke-width="1.5"></path><path d="M111.64 685.18L111.64 685.18" stroke="#132e65" stroke-width="1.5"></path><path d="M111.64 685.18L217.3 643.49" stroke="#132e65" stroke-width="1.5"></path><path d="M111.64 685.18L46.38 530.17" stroke="#132e65" stroke-width="1.5"></path><path d="M111.64 685.18L214.39 523.06" stroke="#132e65" stroke-width="1.5"></path><path d="M224.47 390.68L224.47 390.68" stroke="#132e65" stroke-width="1.5"></path><path d="M224.47 390.68L214.39 523.06" stroke="#132e65" stroke-width="1.5"></path><path d="M214.39 523.06L214.39 523.06" stroke="#132e65" stroke-width="1.5"></path><path d="M214.39 523.06L217.3 643.49" stroke="#132e65" stroke-width="1.5"></path><path d="M214.39 523.06L363.56 545.07" stroke="#132e65" stroke-width="1.5"></path><path d="M217.3 643.49L217.3 643.49" stroke="#132e65" stroke-width="1.5"></path><path d="M217.3 643.49L363.56 545.07" stroke="#132e65" stroke-width="1.5"></path><path d="M408.46 397.54L408.46 397.54" stroke="#132e65" stroke-width="1.5"></path><path d="M408.46 397.54L505.12 349.79" stroke="#132e65" stroke-width="1.5"></path><path d="M408.46 397.54L363.56 545.07" stroke="#132e65" stroke-width="1.5"></path><path d="M408.46 397.54L500.22 526.61" stroke="#132e65" stroke-width="1.5"></path><path d="M408.46 397.54L224.47 390.68" stroke="#132e65" stroke-width="1.5"></path><path d="M408.46 397.54L214.39 523.06" stroke="#132e65" stroke-width="1.5"></path><path d="M408.46 397.54L411.33 647.45" stroke="#132e65" stroke-width="1.5"></path><path d="M363.56 545.07L363.56 545.07" stroke="#132e65" stroke-width="1.5"></path><path d="M363.56 545.07L411.33 647.45" stroke="#132e65" stroke-width="1.5"></path><path d="M363.56 545.07L500.22 526.61" stroke="#132e65" stroke-width="1.5"></path><path d="M363.56 545.07L224.47 390.68" stroke="#132e65" stroke-width="1.5"></path><path d="M411.33 647.45L411.33 647.45" stroke="#132e65" stroke-width="1.5"></path><path d="M411.33 647.45L543.78 695.91" stroke="#132e65" stroke-width="1.5"></path><path d="M411.33 647.45L500.22 526.61" stroke="#132e65" stroke-width="1.5"></path><path d="M411.33 647.45L217.3 643.49" stroke="#132e65" stroke-width="1.5"></path><path d="M505.12 349.79L505.12 349.79" stroke="#132e65" stroke-width="1.5"></path><path d="M505.12 349.79L676.07 339.07" stroke="#132e65" stroke-width="1.5"></path><path d="M505.12 349.79L500.22 526.61" stroke="#132e65" stroke-width="1.5"></path><path d="M500.22 526.61L500.22 526.61" stroke="#132e65" stroke-width="1.5"></path><path d="M500.22 526.61L543.78 695.91" stroke="#132e65" stroke-width="1.5"></path><path d="M500.22 526.61L706.34 535.3" stroke="#132e65" stroke-width="1.5"></path><path d="M543.78 695.91L543.78 695.91" stroke="#132e65" stroke-width="1.5"></path><path d="M543.78 695.91L690.54 671.53" stroke="#132e65" stroke-width="1.5"></path><path d="M682.68 225.05L682.68 225.05" stroke="#132e65" stroke-width="1.5"></path><path d="M682.68 225.05L676.07 339.07" stroke="#132e65" stroke-width="1.5"></path><path d="M682.68 225.05L815.8 202.18" stroke="#132e65" stroke-width="1.5"></path><path d="M682.68 225.05L789.56 380.37" stroke="#132e65" stroke-width="1.5"></path><path d="M682.68 225.05L505.12 349.79" stroke="#132e65" stroke-width="1.5"></path><path d="M682.68 225.05L953.5 213.46" stroke="#132e65" stroke-width="1.5"></path><path d="M676.07 339.07L676.07 339.07" stroke="#132e65" stroke-width="1.5"></path><path d="M676.07 339.07L789.56 380.37" stroke="#132e65" stroke-width="1.5"></path><path d="M706.34 535.3L706.34 535.3" stroke="#132e65" stroke-width="1.5"></path><path d="M706.34 535.3L813.81 557.25" stroke="#132e65" stroke-width="1.5"></path><path d="M706.34 535.3L690.54 671.53" stroke="#132e65" stroke-width="1.5"></path><path d="M706.34 535.3L789.56 380.37" stroke="#132e65" stroke-width="1.5"></path><path d="M706.34 535.3L676.07 339.07" stroke="#132e65" stroke-width="1.5"></path><path d="M690.54 671.53L690.54 671.53" stroke="#132e65" stroke-width="1.5"></path><path d="M690.54 671.53L809.81 709.85" stroke="#132e65" stroke-width="1.5"></path><path d="M690.54 671.53L813.81 557.25" stroke="#132e65" stroke-width="1.5"></path><path d="M815.8 202.18L815.8 202.18" stroke="#132e65" stroke-width="1.5"></path><path d="M815.8 202.18L953.5 213.46" stroke="#132e65" stroke-width="1.5"></path><path d="M815.8 202.18L789.56 380.37" stroke="#132e65" stroke-width="1.5"></path><path d="M815.8 202.18L676.07 339.07" stroke="#132e65" stroke-width="1.5"></path><path d="M789.56 380.37L789.56 380.37" stroke="#132e65" stroke-width="1.5"></path><path d="M789.56 380.37L813.81 557.25" stroke="#132e65" stroke-width="1.5"></path><path d="M813.81 557.25L813.81 557.25" stroke="#132e65" stroke-width="1.5"></path><path d="M809.81 709.85L809.81 709.85" stroke="#132e65" stroke-width="1.5"></path><path d="M809.81 709.85L813.81 557.25" stroke="#132e65" stroke-width="1.5"></path><path d="M809.81 709.85L1007.42 710.17" stroke="#132e65" stroke-width="1.5"></path><path d="M809.81 709.85L706.34 535.3" stroke="#132e65" stroke-width="1.5"></path><path d="M809.81 709.85L543.78 695.91" stroke="#132e65" stroke-width="1.5"></path><path d="M997.82 -74.84L997.82 -74.84" stroke="#132e65" stroke-width="1.5"></path><path d="M997.82 -74.84L1154.98 -77.7" stroke="#132e65" stroke-width="1.5"></path><path d="M997.82 -74.84L984.79 94.18" stroke="#132e65" stroke-width="1.5"></path><path d="M997.82 -74.84L1112.54 89.37" stroke="#132e65" stroke-width="1.5"></path><path d="M997.82 -74.84L1247.54 67.04" stroke="#132e65" stroke-width="1.5"></path><path d="M984.79 94.18L984.79 94.18" stroke="#132e65" stroke-width="1.5"></path><path d="M984.79 94.18L953.5 213.46" stroke="#132e65" stroke-width="1.5"></path><path d="M984.79 94.18L1112.54 89.37" stroke="#132e65" stroke-width="1.5"></path><path d="M953.5 213.46L953.5 213.46" stroke="#132e65" stroke-width="1.5"></path><path d="M953.5 213.46L1099.16 228.12" stroke="#132e65" stroke-width="1.5"></path><path d="M953.5 213.46L1000.42 381.2" stroke="#132e65" stroke-width="1.5"></path><path d="M953.5 213.46L1112.54 89.37" stroke="#132e65" stroke-width="1.5"></path><path d="M1000.42 381.2L1000.42 381.2" stroke="#132e65" stroke-width="1.5"></path><path d="M1000.42 381.2L1097.8 374.65" stroke="#132e65" stroke-width="1.5"></path><path d="M1000.42 381.2L1010.17 511.93" stroke="#132e65" stroke-width="1.5"></path><path d="M1010.17 511.93L1010.17 511.93" stroke="#132e65" stroke-width="1.5"></path><path d="M1010.17 511.93L1113.21 558.32" stroke="#132e65" stroke-width="1.5"></path><path d="M1010.17 511.93L1097.8 374.65" stroke="#132e65" stroke-width="1.5"></path><path d="M1010.17 511.93L1007.42 710.17" stroke="#132e65" stroke-width="1.5"></path><path d="M1007.42 710.17L1007.42 710.17" stroke="#132e65" stroke-width="1.5"></path><path d="M1007.42 710.17L1162 670.4" stroke="#132e65" stroke-width="1.5"></path><path d="M1154.98 -77.7L1154.98 -77.7" stroke="#132e65" stroke-width="1.5"></path><path d="M1154.98 -77.7L1288.02 -40.19" stroke="#132e65" stroke-width="1.5"></path><path d="M1154.98 -77.7L1247.54 67.04" stroke="#132e65" stroke-width="1.5"></path><path d="M1154.98 -77.7L1112.54 89.37" stroke="#132e65" stroke-width="1.5"></path><path d="M1154.98 -77.7L984.79 94.18" stroke="#132e65" stroke-width="1.5"></path><path d="M1154.98 -77.7L1398.5 -68.21" stroke="#132e65" stroke-width="1.5"></path><path d="M1112.54 89.37L1112.54 89.37" stroke="#132e65" stroke-width="1.5"></path><path d="M1112.54 89.37L1247.54 67.04" stroke="#132e65" stroke-width="1.5"></path><path d="M1112.54 89.37L1099.16 228.12" stroke="#132e65" stroke-width="1.5"></path><path d="M1112.54 89.37L1248 238.08" stroke="#132e65" stroke-width="1.5"></path><path d="M1099.16 228.12L1099.16 228.12" stroke="#132e65" stroke-width="1.5"></path><path d="M1099.16 228.12L1097.8 374.65" stroke="#132e65" stroke-width="1.5"></path><path d="M1097.8 374.65L1097.8 374.65" stroke="#132e65" stroke-width="1.5"></path><path d="M1097.8 374.65L1270.92 339.62" stroke="#132e65" stroke-width="1.5"></path><path d="M1097.8 374.65L1113.21 558.32" stroke="#132e65" stroke-width="1.5"></path><path d="M1097.8 374.65L1248 238.08" stroke="#132e65" stroke-width="1.5"></path><path d="M1113.21 558.32L1113.21 558.32" stroke="#132e65" stroke-width="1.5"></path><path d="M1113.21 558.32L1162 670.4" stroke="#132e65" stroke-width="1.5"></path><path d="M1162 670.4L1162 670.4" stroke="#132e65" stroke-width="1.5"></path><path d="M1162 670.4L1309.58 661.35" stroke="#132e65" stroke-width="1.5"></path><path d="M1162 670.4L1310.27 548.22" stroke="#132e65" stroke-width="1.5"></path><path d="M1162 670.4L1010.17 511.93" stroke="#132e65" stroke-width="1.5"></path><path d="M1162 670.4L1397.07 650.81" stroke="#132e65" stroke-width="1.5"></path><path d="M1288.02 -40.19L1288.02 -40.19" stroke="#132e65" stroke-width="1.5"></path><path d="M1288.02 -40.19L1398.5 -68.21" stroke="#132e65" stroke-width="1.5"></path><path d="M1288.02 -40.19L1247.54 67.04" stroke="#132e65" stroke-width="1.5"></path><path d="M1288.02 -40.19L1458.18 54.04" stroke="#132e65" stroke-width="1.5"></path><path d="M1288.02 -40.19L1112.54 89.37" stroke="#132e65" stroke-width="1.5"></path><path d="M1247.54 67.04L1247.54 67.04" stroke="#132e65" stroke-width="1.5"></path><path d="M1248 238.08L1248 238.08" stroke="#132e65" stroke-width="1.5"></path><path d="M1248 238.08L1270.92 339.62" stroke="#132e65" stroke-width="1.5"></path><path d="M1248 238.08L1099.16 228.12" stroke="#132e65" stroke-width="1.5"></path><path d="M1248 238.08L1247.54 67.04" stroke="#132e65" stroke-width="1.5"></path><path d="M1248 238.08L1428.82 256.41" stroke="#132e65" stroke-width="1.5"></path><path d="M1270.92 339.62L1270.92 339.62" stroke="#132e65" stroke-width="1.5"></path><path d="M1310.27 548.22L1310.27 548.22" stroke="#132e65" stroke-width="1.5"></path><path d="M1310.27 548.22L1309.58 661.35" stroke="#132e65" stroke-width="1.5"></path><path d="M1310.27 548.22L1424.3 488.84" stroke="#132e65" stroke-width="1.5"></path><path d="M1310.27 548.22L1397.07 650.81" stroke="#132e65" stroke-width="1.5"></path><path d="M1309.58 661.35L1309.58 661.35" stroke="#132e65" stroke-width="1.5"></path><path d="M1309.58 661.35L1397.07 650.81" stroke="#132e65" stroke-width="1.5"></path><path d="M1398.5 -68.21L1398.5 -68.21" stroke="#132e65" stroke-width="1.5"></path><path d="M1398.5 -68.21L1458.18 54.04" stroke="#132e65" stroke-width="1.5"></path><path d="M1458.18 54.04L1458.18 54.04" stroke="#132e65" stroke-width="1.5"></path><path d="M1458.18 54.04L1560.59 80.15" stroke="#132e65" stroke-width="1.5"></path><path d="M1428.82 256.41L1428.82 256.41" stroke="#132e65" stroke-width="1.5"></path><path d="M1428.82 256.41L1565.35 235.37" stroke="#132e65" stroke-width="1.5"></path><path d="M1428.82 256.41L1442.73 411.49" stroke="#132e65" stroke-width="1.5"></path><path d="M1428.82 256.41L1270.92 339.62" stroke="#132e65" stroke-width="1.5"></path><path d="M1442.73 411.49L1442.73 411.49" stroke="#132e65" stroke-width="1.5"></path><path d="M1442.73 411.49L1424.3 488.84" stroke="#132e65" stroke-width="1.5"></path><path d="M1442.73 411.49L1595.65 371.44" stroke="#132e65" stroke-width="1.5"></path><path d="M1442.73 411.49L1270.92 339.62" stroke="#132e65" stroke-width="1.5"></path><path d="M1424.3 488.84L1424.3 488.84" stroke="#132e65" stroke-width="1.5"></path><path d="M1397.07 650.81L1397.07 650.81" stroke="#132e65" stroke-width="1.5"></path><path d="M1397.07 650.81L1542.92 700.59" stroke="#132e65" stroke-width="1.5"></path><path d="M1551.97 -49.49L1551.97 -49.49" stroke="#132e65" stroke-width="1.5"></path><path d="M1551.97 -49.49L1560.59 80.15" stroke="#132e65" stroke-width="1.5"></path><path d="M1551.97 -49.49L1458.18 54.04" stroke="#132e65" stroke-width="1.5"></path><path d="M1551.97 -49.49L1398.5 -68.21" stroke="#132e65" stroke-width="1.5"></path><path d="M1551.97 -49.49L1288.02 -40.19" stroke="#132e65" stroke-width="1.5"></path><path d="M1551.97 -49.49L1565.35 235.37" stroke="#132e65" stroke-width="1.5"></path><path d="M1560.59 80.15L1560.59 80.15" stroke="#132e65" stroke-width="1.5"></path><path d="M1560.59 80.15L1565.35 235.37" stroke="#132e65" stroke-width="1.5"></path><path d="M1560.59 80.15L1398.5 -68.21" stroke="#132e65" stroke-width="1.5"></path><path d="M1560.59 80.15L1428.82 256.41" stroke="#132e65" stroke-width="1.5"></path><path d="M1560.59 80.15L1595.65 371.44" stroke="#132e65" stroke-width="1.5"></path><path d="M1565.35 235.37L1565.35 235.37" stroke="#132e65" stroke-width="1.5"></path><path d="M1565.35 235.37L1595.65 371.44" stroke="#132e65" stroke-width="1.5"></path><path d="M1565.35 235.37L1458.18 54.04" stroke="#132e65" stroke-width="1.5"></path><path d="M1565.35 235.37L1442.73 411.49" stroke="#132e65" stroke-width="1.5"></path><path d="M1595.65 371.44L1595.65 371.44" stroke="#132e65" stroke-width="1.5"></path><path d="M1595.65 371.44L1601.98 531.5" stroke="#132e65" stroke-width="1.5"></path><path d="M1595.65 371.44L1428.82 256.41" stroke="#132e65" stroke-width="1.5"></path><path d="M1601.98 531.5L1601.98 531.5" stroke="#132e65" stroke-width="1.5"></path><path d="M1601.98 531.5L1542.92 700.59" stroke="#132e65" stroke-width="1.5"></path><path d="M1601.98 531.5L1424.3 488.84" stroke="#132e65" stroke-width="1.5"></path><path d="M1601.98 531.5L1442.73 411.49" stroke="#132e65" stroke-width="1.5"></path><path d="M1542.92 700.59L1542.92 700.59" stroke="#132e65" stroke-width="1.5"></path><path d="M1542.92 700.59L1309.58 661.35" stroke="#132e65" stroke-width="1.5"></path><path d="M1542.92 700.59L1424.3 488.84" stroke="#132e65" stroke-width="1.5"></path><circle r="5" cx="-62.94" cy="359.63" fill="#132e65"></circle><circle r="5" cx="-80.1" cy="497.67" fill="#132e65"></circle><circle r="5" cx="-84.21" cy="654.23" fill="#132e65"></circle><circle r="5" cx="80.43" cy="405.84" fill="#132e65"></circle><circle r="5" cx="46.38" cy="530.17" fill="#132e65"></circle><circle r="5" cx="111.64" cy="685.18" fill="#132e65"></circle><circle r="5" cx="224.47" cy="390.68" fill="#132e65"></circle><circle r="5" cx="214.39" cy="523.06" fill="#132e65"></circle><circle r="5" cx="217.3" cy="643.49" fill="#132e65"></circle><circle r="5" cx="408.46" cy="397.54" fill="#132e65"></circle><circle r="5" cx="363.56" cy="545.07" fill="#132e65"></circle><circle r="5" cx="411.33" cy="647.45" fill="#132e65"></circle><circle r="5" cx="505.12" cy="349.79" fill="#132e65"></circle><circle r="5" cx="500.22" cy="526.61" fill="#132e65"></circle><circle r="5" cx="543.78" cy="695.91" fill="#132e65"></circle><circle r="5" cx="682.68" cy="225.05" fill="#132e65"></circle><circle r="5" cx="676.07" cy="339.07" fill="#132e65"></circle><circle r="5" cx="706.34" cy="535.3" fill="#132e65"></circle><circle r="5" cx="690.54" cy="671.53" fill="#132e65"></circle><circle r="5" cx="815.8" cy="202.18" fill="#132e65"></circle><circle r="5" cx="789.56" cy="380.37" fill="#132e65"></circle><circle r="5" cx="813.81" cy="557.25" fill="#132e65"></circle><circle r="5" cx="809.81" cy="709.85" fill="#132e65"></circle><circle r="5" cx="997.82" cy="-74.84" fill="#132e65"></circle><circle r="5" cx="984.79" cy="94.18" fill="#132e65"></circle><circle r="5" cx="953.5" cy="213.46" fill="#132e65"></circle><circle r="5" cx="1000.42" cy="381.2" fill="#132e65"></circle><circle r="5" cx="1010.17" cy="511.93" fill="#132e65"></circle><circle r="5" cx="1007.42" cy="710.17" fill="#132e65"></circle><circle r="5" cx="1154.98" cy="-77.7" fill="#132e65"></circle><circle r="5" cx="1112.54" cy="89.37" fill="#132e65"></circle><circle r="5" cx="1099.16" cy="228.12" fill="#132e65"></circle><circle r="5" cx="1097.8" cy="374.65" fill="#132e65"></circle><circle r="5" cx="1113.21" cy="558.32" fill="#132e65"></circle><circle r="5" cx="1162" cy="670.4" fill="#132e65"></circle><circle r="5" cx="1288.02" cy="-40.19" fill="#132e65"></circle><circle r="5" cx="1247.54" cy="67.04" fill="#132e65"></circle><circle r="5" cx="1248" cy="238.08" fill="#132e65"></circle><circle r="5" cx="1270.92" cy="339.62" fill="#132e65"></circle><circle r="5" cx="1310.27" cy="548.22" fill="#132e65"></circle><circle r="5" cx="1309.58" cy="661.35" fill="#132e65"></circle><circle r="5" cx="1398.5" cy="-68.21" fill="#132e65"></circle><circle r="5" cx="1458.18" cy="54.04" fill="#132e65"></circle><circle r="5" cx="1428.82" cy="256.41" fill="#132e65"></circle><circle r="5" cx="1442.73" cy="411.49" fill="#132e65"></circle><circle r="5" cx="1424.3" cy="488.84" fill="#132e65"></circle><circle r="5" cx="1397.07" cy="650.81" fill="#132e65"></circle><circle r="5" cx="1551.97" cy="-49.49" fill="#132e65"></circle><circle r="5" cx="1560.59" cy="80.15" fill="#132e65"></circle><circle r="5" cx="1565.35" cy="235.37" fill="#132e65"></circle><circle r="5" cx="1595.65" cy="371.44" fill="#132e65"></circle><circle r="5" cx="1601.98" cy="531.5" fill="#132e65"></circle><circle r="5" cx="1542.92" cy="700.59" fill="#132e65"></circle><path d="M521.16 401.73L521.16 401.73" stroke="hsl(228.5, 77.2%, 51.5%)" stroke-width="1.5"></path><path d="M521.16 401.73L491.71 521.73" stroke="hsl(228.5, 77.2%, 51.5%)" stroke-width="1.5"></path><path d="M521.16 401.73L665.75 402.87" stroke="hsl(228.5, 77.2%, 51.5%)" stroke-width="1.5"></path><path d="M521.16 401.73L637.82 554.81" stroke="hsl(228.5, 77.2%, 51.5%)" stroke-width="1.5"></path><path d="M521.16 401.73L349.74 512.56" stroke="hsl(228.5, 77.2%, 51.5%)" stroke-width="1.5"></path><path d="M521.16 401.73L524.32 642.23" stroke="hsl(228.5, 77.2%, 51.5%)" stroke-width="1.5"></path><path d="M665.75 402.87L665.75 402.87" stroke="hsl(228.5, 77.2%, 51.5%)" stroke-width="1.5"></path><path d="M665.75 402.87L818.99 390.68" stroke="hsl(228.5, 77.2%, 51.5%)" stroke-width="1.5"></path><path d="M665.75 402.87L637.82 554.81" stroke="hsl(228.5, 77.2%, 51.5%)" stroke-width="1.5"></path><path d="M665.75 402.87L813 520.55" stroke="hsl(228.5, 77.2%, 51.5%)" stroke-width="1.5"></path><path d="M665.75 402.87L491.71 521.73" stroke="hsl(228.5, 77.2%, 51.5%)" stroke-width="1.5"></path><path d="M858.68 673.47L858.68 673.47" stroke="hsl(228.5, 77.2%, 51.5%)" stroke-width="1.5"></path><path d="M858.68 673.47L957.29 675.75" stroke="hsl(228.5, 77.2%, 51.5%)" stroke-width="1.5"></path><path d="M858.68 673.47L813 520.55" stroke="hsl(228.5, 77.2%, 51.5%)" stroke-width="1.5"></path><path d="M993.31 542.88L993.31 542.88" stroke="hsl(228.5, 77.2%, 51.5%)" stroke-width="1.5"></path><path d="M993.31 542.88L957.29 675.75" stroke="hsl(228.5, 77.2%, 51.5%)" stroke-width="1.5"></path><path d="M993.31 542.88L1136.73 558.52" stroke="hsl(228.5, 77.2%, 51.5%)" stroke-width="1.5"></path><path d="M993.31 542.88L813 520.55" stroke="hsl(228.5, 77.2%, 51.5%)" stroke-width="1.5"></path><path d="M993.31 542.88L858.68 673.47" stroke="hsl(228.5, 77.2%, 51.5%)" stroke-width="1.5"></path><path d="M993.31 542.88L1142.93 672.97" stroke="hsl(228.5, 77.2%, 51.5%)" stroke-width="1.5"></path><path d="M993.31 542.88L1098.41 361.39" stroke="hsl(228.5, 77.2%, 51.5%)" stroke-width="1.5"></path><path d="M957.29 675.75L957.29 675.75" stroke="hsl(228.5, 77.2%, 51.5%)" stroke-width="1.5"></path><path d="M957.29 675.75L1142.93 672.97" stroke="hsl(228.5, 77.2%, 51.5%)" stroke-width="1.5"></path><path d="M957.29 675.75L813 520.55" stroke="hsl(228.5, 77.2%, 51.5%)" stroke-width="1.5"></path><path d="M957.29 675.75L1136.73 558.52" stroke="hsl(228.5, 77.2%, 51.5%)" stroke-width="1.5"></path><path d="M1136.73 558.52L1136.73 558.52" stroke="hsl(228.5, 77.2%, 51.5%)" stroke-width="1.5"></path><path d="M1136.73 558.52L1142.93 672.97" stroke="hsl(228.5, 77.2%, 51.5%)" stroke-width="1.5"></path><path d="M1246.13 67.44L1246.13 67.44" stroke="hsl(228.5, 77.2%, 51.5%)" stroke-width="1.5"></path><path d="M1246.13 67.44L1158.52 -68.02" stroke="hsl(228.5, 77.2%, 51.5%)" stroke-width="1.5"></path><path d="M1246.13 67.44L1284.09 224.8" stroke="hsl(228.5, 77.2%, 51.5%)" stroke-width="1.5"></path><path d="M1246.13 67.44L1268.36 -101.1" stroke="hsl(228.5, 77.2%, 51.5%)" stroke-width="1.5"></path><path d="M1246.13 67.44L1435.37 72.96" stroke="hsl(228.5, 77.2%, 51.5%)" stroke-width="1.5"></path><path d="M1246.13 67.44L1151.06 235.61" stroke="hsl(228.5, 77.2%, 51.5%)" stroke-width="1.5"></path><path d="M1608.15 99.69L1608.15 99.69" stroke="hsl(228.5, 77.2%, 51.5%)" stroke-width="1.5"></path><path d="M1608.15 99.69L1608.94 223.54" stroke="hsl(228.5, 77.2%, 51.5%)" stroke-width="1.5"></path><path d="M1608.15 99.69L1435.37 72.96" stroke="hsl(228.5, 77.2%, 51.5%)" stroke-width="1.5"></path><path d="M-100.11 493.68L-100.11 493.68" stroke="hsl(228.5, 77.2%, 51.5%)" stroke-width="1.5"></path><path d="M-100.11 493.68L38.13 526.27" stroke="hsl(228.5, 77.2%, 51.5%)" stroke-width="1.5"></path><path d="M-100.11 493.68L-81.5 699.11" stroke="hsl(228.5, 77.2%, 51.5%)" stroke-width="1.5"></path><path d="M-100.11 493.68L102.07 652.79" stroke="hsl(228.5, 77.2%, 51.5%)" stroke-width="1.5"></path><path d="M-100.11 493.68L199.05 527.63" stroke="hsl(228.5, 77.2%, 51.5%)" stroke-width="1.5"></path><path d="M-81.5 699.11L-81.5 699.11" stroke="hsl(228.5, 77.2%, 51.5%)" stroke-width="1.5"></path><path d="M-81.5 699.11L102.07 652.79" stroke="hsl(228.5, 77.2%, 51.5%)" stroke-width="1.5"></path><path d="M-81.5 699.11L38.13 526.27" stroke="hsl(228.5, 77.2%, 51.5%)" stroke-width="1.5"></path><path d="M-81.5 699.11L199.05 527.63" stroke="hsl(228.5, 77.2%, 51.5%)" stroke-width="1.5"></path><path d="M38.13 526.27L38.13 526.27" stroke="hsl(228.5, 77.2%, 51.5%)" stroke-width="1.5"></path><path d="M38.13 526.27L102.07 652.79" stroke="hsl(228.5, 77.2%, 51.5%)" stroke-width="1.5"></path><path d="M38.13 526.27L199.05 527.63" stroke="hsl(228.5, 77.2%, 51.5%)" stroke-width="1.5"></path><path d="M38.13 526.27L349.74 512.56" stroke="hsl(228.5, 77.2%, 51.5%)" stroke-width="1.5"></path><path d="M38.13 526.27L370.92 693.94" stroke="hsl(228.5, 77.2%, 51.5%)" stroke-width="1.5"></path><path d="M102.07 652.79L102.07 652.79" stroke="hsl(228.5, 77.2%, 51.5%)" stroke-width="1.5"></path><path d="M102.07 652.79L199.05 527.63" stroke="hsl(228.5, 77.2%, 51.5%)" stroke-width="1.5"></path><path d="M199.05 527.63L199.05 527.63" stroke="hsl(228.5, 77.2%, 51.5%)" stroke-width="1.5"></path><path d="M199.05 527.63L349.74 512.56" stroke="hsl(228.5, 77.2%, 51.5%)" stroke-width="1.5"></path><path d="M199.05 527.63L370.92 693.94" stroke="hsl(228.5, 77.2%, 51.5%)" stroke-width="1.5"></path><path d="M349.74 512.56L349.74 512.56" stroke="hsl(228.5, 77.2%, 51.5%)" stroke-width="1.5"></path><path d="M349.74 512.56L491.71 521.73" stroke="hsl(228.5, 77.2%, 51.5%)" stroke-width="1.5"></path><path d="M370.92 693.94L370.92 693.94" stroke="hsl(228.5, 77.2%, 51.5%)" stroke-width="1.5"></path><path d="M370.92 693.94L524.32 642.23" stroke="hsl(228.5, 77.2%, 51.5%)" stroke-width="1.5"></path><path d="M370.92 693.94L349.74 512.56" stroke="hsl(228.5, 77.2%, 51.5%)" stroke-width="1.5"></path><path d="M370.92 693.94L491.71 521.73" stroke="hsl(228.5, 77.2%, 51.5%)" stroke-width="1.5"></path><path d="M491.71 521.73L491.71 521.73" stroke="hsl(228.5, 77.2%, 51.5%)" stroke-width="1.5"></path><path d="M491.71 521.73L524.32 642.23" stroke="hsl(228.5, 77.2%, 51.5%)" stroke-width="1.5"></path><path d="M491.71 521.73L637.82 554.81" stroke="hsl(228.5, 77.2%, 51.5%)" stroke-width="1.5"></path><path d="M524.32 642.23L524.32 642.23" stroke="hsl(228.5, 77.2%, 51.5%)" stroke-width="1.5"></path><path d="M524.32 642.23L637.82 554.81" stroke="hsl(228.5, 77.2%, 51.5%)" stroke-width="1.5"></path><path d="M637.82 554.81L637.82 554.81" stroke="hsl(228.5, 77.2%, 51.5%)" stroke-width="1.5"></path><path d="M637.82 554.81L683.39 674.84" stroke="hsl(228.5, 77.2%, 51.5%)" stroke-width="1.5"></path><path d="M683.39 674.84L683.39 674.84" stroke="hsl(228.5, 77.2%, 51.5%)" stroke-width="1.5"></path><path d="M683.39 674.84L524.32 642.23" stroke="hsl(228.5, 77.2%, 51.5%)" stroke-width="1.5"></path><path d="M683.39 674.84L858.68 673.47" stroke="hsl(228.5, 77.2%, 51.5%)" stroke-width="1.5"></path><path d="M818.99 390.68L818.99 390.68" stroke="hsl(228.5, 77.2%, 51.5%)" stroke-width="1.5"></path><path d="M818.99 390.68L813 520.55" stroke="hsl(228.5, 77.2%, 51.5%)" stroke-width="1.5"></path><path d="M818.99 390.68L1003.81 261.07" stroke="hsl(228.5, 77.2%, 51.5%)" stroke-width="1.5"></path><path d="M818.99 390.68L993.31 542.88" stroke="hsl(228.5, 77.2%, 51.5%)" stroke-width="1.5"></path><path d="M818.99 390.68L637.82 554.81" stroke="hsl(228.5, 77.2%, 51.5%)" stroke-width="1.5"></path><path d="M813 520.55L813 520.55" stroke="hsl(228.5, 77.2%, 51.5%)" stroke-width="1.5"></path><path d="M1003.81 261.07L1003.81 261.07" stroke="hsl(228.5, 77.2%, 51.5%)" stroke-width="1.5"></path><path d="M1003.81 261.07L1098.41 361.39" stroke="hsl(228.5, 77.2%, 51.5%)" stroke-width="1.5"></path><path d="M1003.81 261.07L1151.06 235.61" stroke="hsl(228.5, 77.2%, 51.5%)" stroke-width="1.5"></path><path d="M1003.81 261.07L1243.1 372.82" stroke="hsl(228.5, 77.2%, 51.5%)" stroke-width="1.5"></path><path d="M1158.52 -68.02L1158.52 -68.02" stroke="hsl(228.5, 77.2%, 51.5%)" stroke-width="1.5"></path><path d="M1158.52 -68.02L1268.36 -101.1" stroke="hsl(228.5, 77.2%, 51.5%)" stroke-width="1.5"></path><path d="M1151.06 235.61L1151.06 235.61" stroke="hsl(228.5, 77.2%, 51.5%)" stroke-width="1.5"></path><path d="M1151.06 235.61L1284.09 224.8" stroke="hsl(228.5, 77.2%, 51.5%)" stroke-width="1.5"></path><path d="M1098.41 361.39L1098.41 361.39" stroke="hsl(228.5, 77.2%, 51.5%)" stroke-width="1.5"></path><path d="M1098.41 361.39L1151.06 235.61" stroke="hsl(228.5, 77.2%, 51.5%)" stroke-width="1.5"></path><path d="M1098.41 361.39L1243.1 372.82" stroke="hsl(228.5, 77.2%, 51.5%)" stroke-width="1.5"></path><path d="M1098.41 361.39L1136.73 558.52" stroke="hsl(228.5, 77.2%, 51.5%)" stroke-width="1.5"></path><path d="M1142.93 672.97L1142.93 672.97" stroke="hsl(228.5, 77.2%, 51.5%)" stroke-width="1.5"></path><path d="M1142.93 672.97L1263.96 662.75" stroke="hsl(228.5, 77.2%, 51.5%)" stroke-width="1.5"></path><path d="M1268.36 -101.1L1268.36 -101.1" stroke="hsl(228.5, 77.2%, 51.5%)" stroke-width="1.5"></path><path d="M1268.36 -101.1L1437.77 -81.24" stroke="hsl(228.5, 77.2%, 51.5%)" stroke-width="1.5"></path><path d="M1268.36 -101.1L1435.37 72.96" stroke="hsl(228.5, 77.2%, 51.5%)" stroke-width="1.5"></path><path d="M1268.36 -101.1L1284.09 224.8" stroke="hsl(228.5, 77.2%, 51.5%)" stroke-width="1.5"></path><path d="M1268.36 -101.1L1151.06 235.61" stroke="hsl(228.5, 77.2%, 51.5%)" stroke-width="1.5"></path><path d="M1284.09 224.8L1284.09 224.8" stroke="hsl(228.5, 77.2%, 51.5%)" stroke-width="1.5"></path><path d="M1284.09 224.8L1427.95 218.76" stroke="hsl(228.5, 77.2%, 51.5%)" stroke-width="1.5"></path><path d="M1284.09 224.8L1243.1 372.82" stroke="hsl(228.5, 77.2%, 51.5%)" stroke-width="1.5"></path><path d="M1284.09 224.8L1443.18 366.15" stroke="hsl(228.5, 77.2%, 51.5%)" stroke-width="1.5"></path><path d="M1243.1 372.82L1243.1 372.82" stroke="hsl(228.5, 77.2%, 51.5%)" stroke-width="1.5"></path><path d="M1243.1 372.82L1151.06 235.61" stroke="hsl(228.5, 77.2%, 51.5%)" stroke-width="1.5"></path><path d="M1243.1 372.82L1443.18 366.15" stroke="hsl(228.5, 77.2%, 51.5%)" stroke-width="1.5"></path><path d="M1243.1 372.82L1136.73 558.52" stroke="hsl(228.5, 77.2%, 51.5%)" stroke-width="1.5"></path><path d="M1243.1 372.82L1423.2 523.93" stroke="hsl(228.5, 77.2%, 51.5%)" stroke-width="1.5"></path><path d="M1263.96 662.75L1263.96 662.75" stroke="hsl(228.5, 77.2%, 51.5%)" stroke-width="1.5"></path><path d="M1263.96 662.75L1400.51 664.82" stroke="hsl(228.5, 77.2%, 51.5%)" stroke-width="1.5"></path><path d="M1263.96 662.75L1136.73 558.52" stroke="hsl(228.5, 77.2%, 51.5%)" stroke-width="1.5"></path><path d="M1263.96 662.75L1423.2 523.93" stroke="hsl(228.5, 77.2%, 51.5%)" stroke-width="1.5"></path><path d="M1263.96 662.75L1543.09 667.37" stroke="hsl(228.5, 77.2%, 51.5%)" stroke-width="1.5"></path><path d="M1437.77 -81.24L1437.77 -81.24" stroke="hsl(228.5, 77.2%, 51.5%)" stroke-width="1.5"></path><path d="M1437.77 -81.24L1435.37 72.96" stroke="hsl(228.5, 77.2%, 51.5%)" stroke-width="1.5"></path><path d="M1437.77 -81.24L1246.13 67.44" stroke="hsl(228.5, 77.2%, 51.5%)" stroke-width="1.5"></path><path d="M1437.77 -81.24L1608.15 99.69" stroke="hsl(228.5, 77.2%, 51.5%)" stroke-width="1.5"></path><path d="M1435.37 72.96L1435.37 72.96" stroke="hsl(228.5, 77.2%, 51.5%)" stroke-width="1.5"></path><path d="M1435.37 72.96L1427.95 218.76" stroke="hsl(228.5, 77.2%, 51.5%)" stroke-width="1.5"></path><path d="M1427.95 218.76L1427.95 218.76" stroke="hsl(228.5, 77.2%, 51.5%)" stroke-width="1.5"></path><path d="M1427.95 218.76L1443.18 366.15" stroke="hsl(228.5, 77.2%, 51.5%)" stroke-width="1.5"></path><path d="M1427.95 218.76L1608.94 223.54" stroke="hsl(228.5, 77.2%, 51.5%)" stroke-width="1.5"></path><path d="M1427.95 218.76L1560.83 380.58" stroke="hsl(228.5, 77.2%, 51.5%)" stroke-width="1.5"></path><path d="M1443.18 366.15L1443.18 366.15" stroke="hsl(228.5, 77.2%, 51.5%)" stroke-width="1.5"></path><path d="M1443.18 366.15L1560.83 380.58" stroke="hsl(228.5, 77.2%, 51.5%)" stroke-width="1.5"></path><path d="M1423.2 523.93L1423.2 523.93" stroke="hsl(228.5, 77.2%, 51.5%)" stroke-width="1.5"></path><path d="M1423.2 523.93L1556.01 488.92" stroke="hsl(228.5, 77.2%, 51.5%)" stroke-width="1.5"></path><path d="M1423.2 523.93L1400.51 664.82" stroke="hsl(228.5, 77.2%, 51.5%)" stroke-width="1.5"></path><path d="M1423.2 523.93L1443.18 366.15" stroke="hsl(228.5, 77.2%, 51.5%)" stroke-width="1.5"></path><path d="M1423.2 523.93L1543.09 667.37" stroke="hsl(228.5, 77.2%, 51.5%)" stroke-width="1.5"></path><path d="M1423.2 523.93L1560.83 380.58" stroke="hsl(228.5, 77.2%, 51.5%)" stroke-width="1.5"></path><path d="M1400.51 664.82L1400.51 664.82" stroke="hsl(228.5, 77.2%, 51.5%)" stroke-width="1.5"></path><path d="M1400.51 664.82L1543.09 667.37" stroke="hsl(228.5, 77.2%, 51.5%)" stroke-width="1.5"></path><path d="M1608.94 223.54L1608.94 223.54" stroke="hsl(228.5, 77.2%, 51.5%)" stroke-width="1.5"></path><path d="M1608.94 223.54L1560.83 380.58" stroke="hsl(228.5, 77.2%, 51.5%)" stroke-width="1.5"></path><path d="M1560.83 380.58L1560.83 380.58" stroke="hsl(228.5, 77.2%, 51.5%)" stroke-width="1.5"></path><path d="M1560.83 380.58L1556.01 488.92" stroke="hsl(228.5, 77.2%, 51.5%)" stroke-width="1.5"></path><path d="M1556.01 488.92L1556.01 488.92" stroke="hsl(228.5, 77.2%, 51.5%)" stroke-width="1.5"></path><path d="M1543.09 667.37L1543.09 667.37" stroke="hsl(228.5, 77.2%, 51.5%)" stroke-width="1.5"></path><path d="M1543.09 667.37L1556.01 488.92" stroke="hsl(228.5, 77.2%, 51.5%)" stroke-width="1.5"></path><circle r="25" cx="521.16" cy="401.73" fill="url(#SvgjsRadialGradient1001)"></circle><circle r="25" cx="665.75" cy="402.87" fill="url(#SvgjsRadialGradient1001)"></circle><circle r="25" cx="858.68" cy="673.47" fill="url(#SvgjsRadialGradient1001)"></circle><circle r="25" cx="993.31" cy="542.88" fill="url(#SvgjsRadialGradient1001)"></circle><circle r="25" cx="957.29" cy="675.75" fill="url(#SvgjsRadialGradient1001)"></circle><circle r="25" cx="1136.73" cy="558.52" fill="url(#SvgjsRadialGradient1001)"></circle><circle r="25" cx="1246.13" cy="67.44" fill="url(#SvgjsRadialGradient1001)"></circle><circle r="25" cx="1608.15" cy="99.69" fill="url(#SvgjsRadialGradient1001)"></circle><circle r="5" cx="-100.11" cy="493.68" fill="#8b9ad9"></circle><circle r="5" cx="-81.5" cy="699.11" fill="#8b9ad9"></circle><circle r="5" cx="38.13" cy="526.27" fill="#8b9ad9"></circle><circle r="5" cx="102.07" cy="652.79" fill="#8b9ad9"></circle><circle r="5" cx="199.05" cy="527.63" fill="#8b9ad9"></circle><circle r="5" cx="349.74" cy="512.56" fill="#8b9ad9"></circle><circle r="5" cx="370.92" cy="693.94" fill="#8b9ad9"></circle><circle r="5" cx="491.71" cy="521.73" fill="#8b9ad9"></circle><circle r="5" cx="524.32" cy="642.23" fill="#8b9ad9"></circle><circle r="5" cx="637.82" cy="554.81" fill="#8b9ad9"></circle><circle r="5" cx="683.39" cy="674.84" fill="#8b9ad9"></circle><circle r="5" cx="818.99" cy="390.68" fill="#8b9ad9"></circle><circle r="5" cx="813" cy="520.55" fill="#8b9ad9"></circle><circle r="5" cx="1003.81" cy="261.07" fill="#8b9ad9"></circle><circle r="5" cx="1158.52" cy="-68.02" fill="#8b9ad9"></circle><circle r="5" cx="1151.06" cy="235.61" fill="#8b9ad9"></circle><circle r="5" cx="1098.41" cy="361.39" fill="#8b9ad9"></circle><circle r="5" cx="1142.93" cy="672.97" fill="#8b9ad9"></circle><circle r="5" cx="1268.36" cy="-101.1" fill="#8b9ad9"></circle><circle r="5" cx="1284.09" cy="224.8" fill="#8b9ad9"></circle><circle r="5" cx="1243.1" cy="372.82" fill="#8b9ad9"></circle><circle r="5" cx="1263.96" cy="662.75" fill="#8b9ad9"></circle><circle r="5" cx="1437.77" cy="-81.24" fill="#8b9ad9"></circle><circle r="5" cx="1435.37" cy="72.96" fill="#8b9ad9"></circle><circle r="5" cx="1427.95" cy="218.76" fill="#8b9ad9"></circle><circle r="5" cx="1443.18" cy="366.15" fill="#8b9ad9"></circle><circle r="5" cx="1423.2" cy="523.93" fill="#8b9ad9"></circle><circle r="5" cx="1400.51" cy="664.82" fill="#8b9ad9"></circle><circle r="5" cx="1608.94" cy="223.54" fill="#8b9ad9"></circle><circle r="5" cx="1560.83" cy="380.58" fill="#8b9ad9"></circle><circle r="5" cx="1556.01" cy="488.92" fill="#8b9ad9"></circle><circle r="5" cx="1543.09" cy="667.37" fill="#8b9ad9"></circle></g><defs><mask id="SvgjsMask1000"><rect width="1440" height="560" fill="#ffffff"></rect></mask><radialGradient id="SvgjsRadialGradient1001"><stop stop-color="#ffffff" offset="0.1"></stop><stop stop-color="#1735b3" offset="0.2"></stop><stop stop-color="rgba(23, 53, 179, 0)" offset="1"></stop></radialGradient></defs></svg>